<svg xmlns="http://www.w3.org/2000/svg" xmlns:xlink="http://www.w3.org/1999/xlink" width="27.992" height="28.001" viewBox="0 0 27.992 28.001">
  <defs>
    <linearGradient id="linear-gradient" x1="0.5" x2="0.5" y2="1" gradientUnits="objectBoundingBox">
      <stop offset="0" stop-color="#1e2c3c"/>
      <stop offset="1" stop-color="#3c536d"/>
    </linearGradient>
  </defs>
  <path id="Path_7829" data-name="Path 7829" d="M-599.9,197.639a13.983,13.983,0,0,1,13.988,14.233,13.986,13.986,0,0,1-14.478,13.76A13.987,13.987,0,0,1-613.9,211.287,14,14,0,0,1-599.9,197.639Zm8.518,22.759a12.126,12.126,0,0,0,3.217-12.3,12.251,12.251,0,0,0-11.593-8.717,12.269,12.269,0,0,0-11.8,8.436,12.133,12.133,0,0,0,2.979,12.433c1.623-3.985,4.508-6.3,8.886-6.166C-595.528,214.21-592.849,216.576-591.383,220.4Zm-8.671-7.824a5.223,5.223,0,0,0,5.282-5.185,5.239,5.239,0,0,0-5.206-5.269,5.221,5.221,0,0,0-5.244,5.22A5.206,5.206,0,0,0-600.054,212.574Z" transform="translate(613.903 -197.639)" fill="url(#linear-gradient)"/>
</svg>
